#!OML:ASF F:\VICON\USERDATA\INSTALL\rory3\rory3.ASF
:FULLY-SPECIFIED
:DEGREES
911
root 2.48772 29.9011 -1.88983 -159.287 -30.5822 -181.22
lowerback 12.376 -6.08463 -4.96668
upperback 0.277064 -8.82369 0.308357
thorax -5.80166 -4.21457 4.54313
lowerneck -4.63773 9.89811 -14.235
upperneck 39.8933 11.1149 0.313211
head 13.5718 1.02144 3.36739
rclavicle -2.38542e-014 6.36111e-015
rhumerus -21.0821 2.17838 -77.6057
rradius 106.23
rwrist -5.21193
rhand -33.9953 -7.00215
rfingers 7.12502
rthumb -7.17503 -36.8605
lclavicle -2.38542e-014 6.36111e-015
lhumerus 25.4921 -26.2878 61.9443
lradius 85.5043
lwrist 20.4069
lhand -26.2269 50.0959
lfingers 7.12502
lthumb 0.326553 80.0754
rfemur -26.6771 0.329913 19.6235
rtibia 14.5414
rfoot 6.57127 -19.1695
rtoes 12.7965
lfemur -70.2874 6.28372 -34.165
ltibia 77.8458
lfoot -26.9335 -16.0208
ltoes 12.4706
912
root 2.51364 29.814 -1.88323 -159.555 -30.4141 -181.314
lowerback 12.3297 -6.02972 -4.99837
upperback 0.296655 -8.76767 0.133698
thorax -5.78452 -4.19102 4.36399
lowerneck -4.15401 9.96949 -14.2554
upperneck 39.8073 11.0226 0.434726
head 13.4204 0.99841 3.37908
rclavicle 2.62396e-014 3.02153e-014
rhumerus -20.96 2.2279 -77.6348
rradius 106.757
rwrist -5.31228
rhand -33.9109 -7.62116
rfingers 7.12502
rthumb -7.09359 -37.4823
lclavicle 2.62396e-014 3.02153e-014
lhumerus 25.8319 -26.145 61.4573
lradius 85.5152
lwrist 20.7641
lhand -26.4228 49.807
lfingers 7.12502
lthumb 0.137439 79.7867
rfemur -26.2722 -0.0223891 19.7954
rtibia 14.6002
rfoot 5.59749 -17.1453
rtoes 11.0839
lfemur -70.6181 6.6052 -34.363
ltibia 78.8141
lfoot -27.3443 -16.0065
ltoes 12.3174
913
root 2.54682 29.7302 -1.86609 -159.941 -30.771 -181.291
lowerback 12.55 -6.15198 -4.76312
upperback 0.306863 -8.91393 0.0623747
thorax -5.92833 -4.26371 4.21342
lowerneck -3.92822 9.99419 -14.5379
upperneck 39.8509 10.8635 0.899343
head 13.3387 0.937951 3.57791
rclavicle 8.54774e-014 -5.88403e-014
rhumerus -20.7661 2.29568 -77.713
rradius 107.193
rwrist -5.28888
rhand -33.7814 -8.1423
rfingers 7.12502
rthumb -6.96853 -38.0076
lclavicle 8.54774e-014 -5.88403e-014
lhumerus 26.1768 -25.8594 61.0785
lradius 85.3742
lwrist 21.1455
lhand -26.6864 49.0244
lfingers 7.12502
lthumb -0.117232 79.0042
rfemur -25.5038 -1.11357 20.5064
rtibia 14.6241
rfoot 4.70039 -15.3106
rtoes 8.83418
lfemur -70.8622 6.46665 -34.274
ltibia 79.7265
lfoot -27.6664 -15.9176
ltoes 12.1215
914
root 2.58586 29.643 -1.85412 -160.204 -31.1173 -181.178
lowerback 12.542 -6.25252 -4.51359
upperback 0.284029 -9.01152 0.0378101
thorax -5.98066 -4.31534 4.06954
lowerneck -3.9582 9.96375 -14.9969
upperneck 40.1127 10.623 1.60734
head 13.3854 0.818992 3.91313
rclavicle 3.89618e-014 2.70347e-014
rhumerus -20.5282 2.32012 -77.7395
rradius 107.567
rwrist -5.18783
rhand -33.7701 -8.81683
rfingers 7.12502
rthumb -6.95769 -38.6825
lclavicle 3.89618e-014 2.70347e-014
lhumerus 26.6508 -25.6047 60.617
lradius 85.1715
lwrist 21.6368
lhand -26.5992 49.0871
lfingers 7.12502
lthumb -0.032979 79.0669
rfemur -25.0595 -1.32321 20.8882
rtibia 14.4796
rfoot 3.59995 -14.4784
rtoes 7.95688
lfemur -71.37 6.32266 -34.0946
ltibia 80.6798
lfoot -27.8151 -15.9579
ltoes 12.5548
915
root 2.62994 29.5611 -1.83758 -160.439 -31.3479 -181.208
lowerback 12.5774 -6.31133 -4.43267
upperback 0.29205 -9.08709 -0.0525707
thorax -6.01245 -4.35502 3.94825
lowerneck -3.82491 10.0273 -15.1469
upperneck 40.3756 10.5154 1.96616
head 13.4415 0.752286 4.06477
rclavicle -3.89618e-014 3.65764e-014
rhumerus -20.2822 2.27485 -77.7559
rradius 107.983
rwrist -5.06971
rhand -33.5768 -9.38513
rfingers 7.12502
rthumb -6.77102 -39.2569
lclavicle -3.89618e-014 3.65764e-014
lhumerus 27.2505 -25.3909 59.9881
lradius 84.9554
lwrist 22.1435
lhand -26.0645 49.7484
lfingers 7.12502
lthumb 0.483479 79.7276
rfemur -24.8873 -0.926722 20.8198
rtibia 14.523
rfoot 2.57371 -13.9677
rtoes 6.65732
lfemur -71.8375 6.2499 -34.0518
ltibia 81.6319
lfoot -27.9195 -15.9694
ltoes 12.9825
916
root 2.66464 29.4864 -1.82993 -160.569 -31.1093 -181.176
lowerback 12.2806 -6.20289 -4.53104
upperback 0.292647 -8.94773 -0.122373
thorax -5.85581 -4.29264 3.86878
lowerneck -3.58868 10.1263 -15.1525
upperneck 40.5579 10.4735 2.15286
head 13.4587 0.723702 4.12391
rclavicle -4.85035e-014 -1.11319e-014
rhumerus -20.0643 2.2671 -77.7085
rradius 108.459
rwrist -4.91525
rhand -33.3346 -9.96262
rfingers 7.12502
rthumb -6.53721 -39.8417
lclavicle -4.85035e-014 -1.11319e-014
lhumerus 27.793 -25.1732 59.4806
lradius 84.786
lwrist 22.5893
lhand -25.5398 50.5326
lfingers 7.12502
lthumb 0.990173 80.5101
rfemur -24.8251 -0.257465 20.7077
rtibia 14.4354
rfoot 1.36747 -13.5104
rtoes 6.42342
lfemur -72.418 6.62017 -34.1062
ltibia 82.6237
lfoot -28.079 -15.9118
ltoes 13.0189
917
root 2.69696 29.4119 -1.82099 -160.676 -31.1997 -180.956
lowerback 11.8667 -6.23053 -4.20898
upperback 0.290076 -8.92012 -0.17259
thorax -5.68725 -4.29528 3.5865
lowerneck -3.34464 10.1606 -15.1773
upperneck 40.4967 10.3926 2.35882
head 13.3614 0.717355 4.18651
rclavicle -1.18873e-013 3.18055e-014
rhumerus -19.7325 2.2536 -77.8202
rradius 108.799
rwrist -4.74496
rhand -33.1671 -10.3402
rfingers 7.12502
rthumb -6.37558 -40.2242
lclavicle -1.18873e-013 3.18055e-014
lhumerus 28.3674 -24.941 58.885
lradius 84.6953
lwrist 23.0821
lhand -25.0047 51.1249
lfingers 7.12502
lthumb 1.50705 81.0993
rfemur -24.6609 -0.273569 21.1506
rtibia 14.4589
rfoot 0.0956097 -12.6772
rtoes 4.41406
lfemur -73.1629 6.6977 -33.9286
ltibia 83.6414
lfoot -28.0508 -15.902
ltoes 12.928
918
root 2.73683 29.335 -1.80751 -160.966 -31.2398 -180.856
lowerback 11.8067 -6.21517 -4.08228
upperback 0.364187 -8.8857 -0.256975
thorax -5.61087 -4.28818 3.41349
lowerneck -3.01078 10.1448 -15.0711
upperneck 40.2642 10.3094 2.28669
head 13.205 0.715651 4.11019
rclavicle 1.41932e-013 3.18055e-015
rhumerus -19.3551 2.17499 -77.9185
rradius 109.09
rwrist -4.72368
rhand -33.0721 -10.7717
rfingers 7.12502
rthumb -6.28384 -40.6585
lclavicle 1.41932e-013 3.18055e-015
lhumerus 29.1377 -24.6891 58.192
lradius 84.4283
lwrist 23.5773
lhand -24.8365 51.6316
lfingers 7.12502
lthumb 1.66948 81.6049
rfemur -24.3857 -0.0264145 21.3783
rtibia 14.6455
rfoot -1.44468 -12.3787
rtoes 5.48205
lfemur -73.7075 6.79278 -33.8215
ltibia 84.6335
lfoot -27.6876 -16.3478
ltoes 13.9477
919
root 2.7889 29.26 -1.80191 -161.386 -31.1029 -181.025
lowerback 12.0241 -6.08038 -4.50658
upperback 0.491862 -8.78686 -0.35868
thorax -5.55786 -4.23738 3.54007
lowerneck -2.72393 10.1749 -14.9772
upperneck 40.2339 10.2446 2.29206
head 13.1413 0.700456 4.07469
rclavicle -1.19271e-015 5.40694e-014
rhumerus -19.0854 2.00183 -77.9655
rradius 109.432
rwrist -4.65423
rhand -32.9641 -11.0611
rfingers 7.12502
rthumb -6.17952 -40.951
lclavicle -1.19271e-015 5.40694e-014
lhumerus 29.787 -24.4167 57.7238
lradius 84.0713
lwrist 24.037
lhand -24.837 51.4999
lfingers 7.12502
lthumb 1.66899 81.4732
rfemur -23.8961 0.450716 21.3498
rtibia 14.9859
rfoot -3.07285 -12.3822
rtoes 7.54567
lfemur -73.9524 7.03974 -33.8791
ltibia 85.6101
lfoot -27.176 -16.9685
ltoes 15.824
920
root 2.82081 29.19 -1.77512 -161.588 -31.1893 -180.944
lowerback 11.9548 -6.08041 -4.20867
upperback 0.487814 -8.74845 -0.445027
thorax -5.58463 -4.22602 3.2781
lowerneck -2.45167 10.2114 -14.8906
upperneck 40.2858 10.155 2.37173
head 13.1125 0.670119 4.07015
rclavicle -1.25234e-013 1.43125e-014
rhumerus -18.8086 1.84785 -78.0355
rradius 109.7
rwrist -4.48787
rhand -32.8395 -11.42
rfingers 7.12502
rthumb -6.05928 -41.3134
lclavicle -1.25234e-013 1.43125e-014
lhumerus 30.3153 -24.3365 57.2837
lradius 83.225
lwrist 23.5771
lhand -25.8638 49.3737
lfingers 7.12502
lthumb 0.67729 79.3524
rfemur -23.9481 0.223872 21.6304
rtibia 15.4008
rfoot -4.04219 -11.8055
rtoes 7.74654
lfemur -74.6205 6.92227 -33.7935
ltibia 86.6177
lfoot -26.8221 -16.966
ltoes 15.7251
921
root 2.85416 29.1208 -1.75693 -161.8 -31.2898 -180.56
lowerback 11.6566 -6.09421 -3.6647
upperback 0.506099 -8.67907 -0.487049
thorax -5.49107 -4.20928 2.89487
lowerneck -2.2155 10.218 -14.9128
upperneck 40.1651 10.0511 2.60097
head 12.9921 0.667186 4.14006
rclavicle 2.0276e-014 -1.59028e-014
rhumerus -18.3553 1.71975 -78.1853
rradius 109.84
rwrist -4.28062
rhand -32.7455 -11.8785
rfingers 7.12502
rthumb -5.96847 -41.7744
lclavicle 2.0276e-014 -1.59028e-014
lhumerus 30.9704 -24.1134 56.8008
lradius 82.6379
lwrist 23.8221
lhand -26.0277 48.4851
lfingers 7.12502
lthumb 0.519031 78.4642
rfemur -24.2768 0.383291 22.0897
rtibia 15.8013
rfoot -4.86459 -11.5863
rtoes 7.6407
lfemur -75.5083 6.90917 -33.4104
ltibia 87.6484
lfoot -26.5504 -17.0258
ltoes 14.8885
